<svg width="24" height="24" viewBox="0 0 24 24" fill="none" xmlns="http://www.w3.org/2000/svg">
<path fill-rule="evenodd" clip-rule="evenodd" d="M12 13.7143C10.0952 13.7143 8.47616 13.0476 7.14282 11.7143C5.80949 10.381 5.14282 8.7619 5.14282 6.85714C5.14282 4.95238 5.80949 3.33333 7.14282 2C8.47616 0.666667 10.0952 0 12 0C13.9047 0 15.5238 0.666667 16.8571 2C18.1904 3.33333 18.8571 4.95238 18.8571 6.85714C18.8571 8.7619 18.1904 10.381 16.8571 11.7143C15.5238 13.0476 13.9047 13.7143 12 13.7143Z" fill="#24252D"/>
<path fill-rule="evenodd" clip-rule="evenodd" d="M12 15.4285C14.5 15.4285 17.125 15.9543 19.875 17.0058C22.625 18.0574 24 19.4364 24 21.1428V23.9999H0V21.1428C0 19.4364 1.375 18.0574 4.125 17.0058C6.875 15.9543 9.5 15.4285 12 15.4285Z" fill="#24252D"/>
</svg>
